Coordinates
version=1
nRows=7
nColumns=46
inDegrees=yes

Units are S.I. units (second, meters, Newtons, ...)
Angles are in degrees.

endheader
time	pelvis_tilt	pelvis_list	pelvis_rotation	pelvis_tx	pelvis_ty	pelvis_tz	bb_angle	bb_tx	bb_ty	bb_tz	hip_flexion_r	hip_adduction_r	hip_rotation_r	knee_angle_r	knee_angle_r_beta	ankle_angle_r	subtalar_angle_r	mtp_angle_r	crank_angle_r	hip_flexion_l	hip_adduction_l	hip_rotation_l	knee_angle_l	knee_angle_l_beta	ankle_angle_l	subtalar_angle_l	mtp_angle_l	crank_angle_l	lumbar_extension	lumbar_bending	lumbar_rotation	arm_flex_r	arm_add_r	arm_rot_r	elbow_flex_r	pro_sup_r	wrist_flex_r	wrist_dev_r	arm_flex_l	arm_add_l	arm_rot_l	elbow_flex_l	pro_sup_l	wrist_flex_l	wrist_dev_l
      2.50000000	    -11.94903271	      5.79216785	      9.12691712	      0.06372647	      1.15153933	     -0.23720381	      0.00000000	      0.50000000	      0.00000000	      0.25000000	     64.80835836	     -8.53202587	      9.97660705	     95.01109079	      1.65825636	    -28.03595424	    -12.74664713	      0.00000000	      0.00000000	     55.38793306	      6.73238622	      1.18211270	     51.88771123	      0.90561140	     14.68194808	     -5.45236196	      0.00000000	      0.00000000	    -67.04215664	      1.17264182	     -7.79291670	     89.42362725	    -20.33364150	     33.41830147	     63.56406517	     37.34070870	      0.00000000	      0.00000000	     89.80628053	    -14.21211744	     34.66557606	     65.48583456	     27.61422822	      0.00000000	      0.00000000
      2.50500000	    -11.68535602	      5.20372716	      8.89062414	      0.06468019	      1.15291334	     -0.23769454	      0.00000000	      0.50000000	      0.00000000	      0.25000000	     65.55615246	     -7.89856047	      9.81898666	     96.23649485	      1.67964370	    -28.43222094	    -12.42989472	      0.00000000	      0.00000000	     53.63515783	      5.93067416	      1.16106401	     49.63793150	      0.86634534	     13.90991418	     -4.80887127	      0.00000000	      0.00000000	    -66.96212415	      1.53544691	     -7.09639735	     89.43404395	    -20.03088418	     33.76361512	     62.89776226	     37.32215296	      0.00000000	      0.00000000	     89.80009012	    -14.23921369	     35.02053948	     64.62030411	     27.64372245	      0.00000000	      0.00000000
      2.51000000	    -11.34024727	      4.58830091	      8.68637877	      0.06568667	      1.15442876	     -0.23834773	      0.00000000	      0.50000000	      0.00000000	      0.25000000	     66.23231364	     -7.37396524	      9.43338322	     97.46022286	      1.70100178	    -28.78144313	    -12.53789415	      0.00000000	      0.00000000	     51.76392206	      5.17233135	      1.25745282	     47.38698666	      0.82705894	     12.85168921	     -3.54909709	      0.00000000	      0.00000000	    -66.93381080	      1.95127130	     -6.39584726	     89.43995948	    -19.60070485	     34.02388035	     62.09849422	     37.24630748	      0.00000000	      0.00000000	     89.79526502	    -14.23996714	     35.42943035	     63.62849257	     27.63294968	      0.00000000	      0.00000000
      2.51500000	    -11.20727637	      3.75386242	      8.53861545	      0.06671480	      1.15561550	     -0.23914210	      0.00000000	      0.50000000	      0.00000000	      0.25000000	     67.11917126	     -6.69169547	      8.98780856	     98.59467147	      1.72080164	    -29.15525243	    -12.23245582	      0.00000000	      0.00000000	     50.17923647	      4.27327444	      1.40250934	     45.19262513	      0.78876011	     11.87083240	     -2.75935834	      0.00000000	      0.00000000	    -66.72908916	      2.55004642	     -5.56065799	     89.42565757	    -19.23962715	     34.24026017	     61.84895112	     37.20977426	      0.00000000	      0.00000000	     89.78192639	    -14.40381847	     35.56368993	     63.23946569	     27.53755291	      0.00000000	      0.00000000
      2.52000000	    -10.59407668	      2.94302793	      8.22656039	      0.06803166	      1.15714744	     -0.23967480	      0.00000000	      0.50000000	      0.00000000	      0.25000000	     67.54557921	     -5.89431998	      8.53630857	     99.74498634	      1.74087842	    -29.44034082	    -12.06063673	      0.00000000	      0.00000000	     48.17555032	      3.23655732	      1.48606286	     43.29503591	      0.75564093	     11.11972728	     -1.75397454	      0.00000000	      0.00000000	    -66.69888768	      3.01112978	     -4.60891500	     89.45459724	    -18.45993147	     34.70547375	     59.89625380	     37.03162488	      0.00000000	      0.00000000	     89.78316262	    -14.22978315	     36.49718240	     61.11128433	     27.55942413	      0.00000000	      0.00000000
      2.52500000	    -10.15276741	      2.26089893	      8.07615273	      0.06927482	      1.15924714	     -0.24032163	      0.00000000	      0.50000000	      0.00000000	      0.25000000	     68.09838418	     -5.30257689	      8.22825964	    100.74227752	      1.75828444	    -29.75071231	    -11.63277565	      0.00000000	      0.00000000	     46.08873927	      2.26558072	      1.13725294	     40.89274299	      0.71371301	     10.04852054	     -0.43781385	      0.00000000	      0.00000000	    -66.76384623	      3.56464407	     -3.83628333	     89.45518796	    -17.96296170	     34.97796633	     59.20311894	     36.90825363	      0.00000000	      0.00000000	     89.77669077	    -14.27846418	     36.97315458	     60.18175192	     27.37056461	      0.00000000	      0.00000000
      2.53000000	     -9.58678687	      1.40902180	      7.76286783	      0.07081326	      1.16101550	     -0.24094364	      0.00000000	      0.50000000	      0.00000000	      0.25000000	     68.56757304	     -4.51628285	      7.72471090	    101.75791535	      1.77601066	    -29.88954555	    -11.50257079	      0.00000000	      0.00000000	     44.09434631	      1.07816974	      0.88608806	     38.98933501	      0.68049227	      9.39837057	      0.82655962	      0.00000000	      0.00000000	    -66.79218071	      4.06656709	     -2.88168495	     89.46263370	    -17.26780339	     35.39238874	     57.81876097	     36.65224331	      0.00000000	      0.00000000	     89.77302701	    -14.22102067	     37.78162027	     58.61821438	     27.06070037	      0.00000000	      0.00000000
